<?xml version="1.0" encoding="utf-8"?>
<!-- Generator: Adobe Illustrator 24.0.2, SVG Export Plug-In . SVG Version: 6.00 Build 0)  -->
<svg version="1.1" id="Layer_1" xmlns="http://www.w3.org/2000/svg" xmlns:xlink="http://www.w3.org/1999/xlink" x="0px" y="0px"
	 viewBox="0 0 172 60" style="enable-background:new 0 0 172 60;" xml:space="preserve">
<style type="text/css">
	.st0{fill:#0075BF;}
	.st1{fill:none;stroke:#CCCCCC;stroke-miterlimit:10;}
</style>
<g>
	<path class="st0" d="M59.5,33.3l-0.1-0.9h0c-0.4,0.5-1.1,1-2.1,1c-1.4,0-2.1-1-2.1-1.9c0-1.6,1.5-2.5,4.1-2.5v-0.1
		c0-0.6-0.2-1.6-1.5-1.6c-0.6,0-1.3,0.2-1.8,0.5l-0.3-0.8c0.6-0.4,1.4-0.6,2.2-0.6c2.1,0,2.6,1.4,2.6,2.8v2.5c0,0.6,0,1.2,0.1,1.6
		H59.5z M59.3,29.8c-1.3,0-2.9,0.2-2.9,1.5c0,0.8,0.5,1.2,1.2,1.2c0.9,0,1.4-0.6,1.6-1.1c0-0.1,0.1-0.3,0.1-0.4V29.8z"/>
	<path class="st0" d="M62.5,28.7c0-0.9,0-1.6-0.1-2.2h1.1l0.1,1.2h0c0.5-0.8,1.3-1.3,2.4-1.3c1.6,0,2.9,1.4,2.9,3.4
		c0,2.4-1.5,3.6-3.1,3.6c-0.9,0-1.7-0.4-2.1-1.1h0V36h-1.2V28.7z M63.7,30.5c0,0.2,0,0.4,0.1,0.5c0.2,0.9,1,1.4,1.8,1.4
		c1.3,0,2.1-1.1,2.1-2.6c0-1.4-0.7-2.5-2-2.5c-0.8,0-1.6,0.6-1.9,1.5c0,0.2-0.1,0.3-0.1,0.5V30.5z"/>
	<path class="st0" d="M70.5,28.7c0-0.9,0-1.6-0.1-2.2h1.1l0.1,1.2h0c0.5-0.8,1.3-1.3,2.4-1.3c1.6,0,2.9,1.4,2.9,3.4
		c0,2.4-1.5,3.6-3.1,3.6c-0.9,0-1.7-0.4-2.1-1.1h0V36h-1.2V28.7z M71.7,30.5c0,0.2,0,0.4,0.1,0.5c0.2,0.9,1,1.4,1.8,1.4
		c1.3,0,2.1-1.1,2.1-2.6c0-1.4-0.7-2.5-2-2.5c-0.8,0-1.6,0.6-1.9,1.5c0,0.2-0.1,0.3-0.1,0.5V30.5z"/>
	<path class="st0" d="M78.5,23.3h1.2v9.9h-1.2V23.3z"/>
	<path class="st0" d="M83.1,24.6c0,0.4-0.3,0.8-0.8,0.8c-0.4,0-0.7-0.3-0.7-0.8c0-0.4,0.3-0.8,0.8-0.8
		C82.8,23.8,83.1,24.1,83.1,24.6z M81.8,33.3v-6.8H83v6.8H81.8z"/>
	<path class="st0" d="M89.9,33c-0.3,0.2-1,0.4-1.9,0.4c-2,0-3.4-1.4-3.4-3.5c0-2.1,1.4-3.6,3.6-3.6c0.7,0,1.4,0.2,1.7,0.4l-0.3,1
		c-0.3-0.2-0.8-0.3-1.4-0.3c-1.6,0-2.4,1.1-2.4,2.6c0,1.6,1,2.5,2.4,2.5c0.7,0,1.2-0.2,1.5-0.3L89.9,33z"/>
	<path class="st0" d="M95.1,33.3L95,32.4h0c-0.4,0.5-1.1,1-2.1,1c-1.4,0-2.1-1-2.1-1.9c0-1.6,1.5-2.5,4.1-2.5v-0.1
		c0-0.6-0.2-1.6-1.5-1.6c-0.6,0-1.3,0.2-1.8,0.5l-0.3-0.8c0.6-0.4,1.4-0.6,2.2-0.6c2.1,0,2.6,1.4,2.6,2.8v2.5c0,0.6,0,1.2,0.1,1.6
		H95.1z M94.9,29.8c-1.3,0-2.9,0.2-2.9,1.5c0,0.8,0.5,1.2,1.2,1.2c0.9,0,1.4-0.6,1.6-1.1c0-0.1,0.1-0.3,0.1-0.4V29.8z"/>
	<path class="st0" d="M99.5,24.5v1.9h1.8v0.9h-1.8v3.7c0,0.8,0.2,1.3,0.9,1.3c0.3,0,0.6,0,0.7-0.1l0.1,0.9c-0.2,0.1-0.6,0.2-1.1,0.2
		c-0.6,0-1-0.2-1.3-0.5c-0.3-0.4-0.5-1-0.5-1.8v-3.7h-1.1v-0.9h1.1v-1.6L99.5,24.5z"/>
	<path class="st0" d="M104,24.6c0,0.4-0.3,0.8-0.8,0.8c-0.4,0-0.7-0.3-0.7-0.8c0-0.4,0.3-0.8,0.8-0.8C103.7,23.8,104,24.1,104,24.6z
		 M102.6,33.3v-6.8h1.2v6.8H102.6z"/>
	<path class="st0" d="M112,29.8c0,2.5-1.7,3.6-3.4,3.6c-1.8,0-3.3-1.3-3.3-3.5c0-2.3,1.5-3.6,3.4-3.6C110.7,26.3,112,27.7,112,29.8z
		 M106.7,29.9c0,1.5,0.9,2.6,2.1,2.6c1.2,0,2.1-1.1,2.1-2.6c0-1.1-0.6-2.6-2-2.6C107.3,27.2,106.7,28.6,106.7,29.9z"/>
	<path class="st0" d="M113.6,28.3c0-0.7,0-1.3-0.1-1.8h1.1l0.1,1.1h0c0.3-0.6,1.1-1.3,2.2-1.3c0.9,0,2.4,0.6,2.4,2.9v4h-1.2v-3.9
		c0-1.1-0.4-2-1.6-2c-0.8,0-1.4,0.6-1.7,1.3c-0.1,0.2-0.1,0.4-0.1,0.6v4.1h-1.2V28.3z"/>
	<path class="st0" d="M124.3,28.3c0-0.7,0-1.3-0.1-1.8h1.1l0.1,1.1h0c0.3-0.6,1.1-1.3,2.2-1.3c0.9,0,2.4,0.6,2.4,2.9v4h-1.2v-3.9
		c0-1.1-0.4-2-1.6-2c-0.8,0-1.4,0.6-1.7,1.3c-0.1,0.2-0.1,0.4-0.1,0.6v4.1h-1.2V28.3z"/>
	<path class="st0" d="M135.9,33.3l-0.1-0.9h0c-0.4,0.5-1.1,1-2.1,1c-1.4,0-2.1-1-2.1-1.9c0-1.6,1.5-2.5,4.1-2.5v-0.1
		c0-0.6-0.2-1.6-1.5-1.6c-0.6,0-1.3,0.2-1.8,0.5l-0.3-0.8c0.6-0.4,1.4-0.6,2.2-0.6c2.1,0,2.6,1.4,2.6,2.8v2.5c0,0.6,0,1.2,0.1,1.6
		H135.9z M135.7,29.8c-1.3,0-2.9,0.2-2.9,1.5c0,0.8,0.5,1.2,1.2,1.2c0.9,0,1.4-0.6,1.6-1.1c0-0.1,0.1-0.3,0.1-0.4V29.8z"/>
	<path class="st0" d="M138.8,28.3c0-0.7,0-1.3-0.1-1.8h1.1l0.1,1.1h0c0.4-0.6,1-1.2,2.1-1.2c0.9,0,1.6,0.6,1.9,1.4h0
		c0.2-0.4,0.5-0.7,0.8-0.9c0.4-0.3,0.9-0.5,1.5-0.5c0.9,0,2.2,0.6,2.2,2.9v4h-1.2v-3.8c0-1.3-0.5-2.1-1.5-2.1
		c-0.7,0-1.2,0.5-1.5,1.1c-0.1,0.2-0.1,0.4-0.1,0.6v4.2h-1.2v-4.1c0-1.1-0.5-1.9-1.4-1.9c-0.8,0-1.3,0.6-1.5,1.2
		c-0.1,0.2-0.1,0.4-0.1,0.6v4.1h-1.2V28.3z"/>
	<path class="st0" d="M151.2,30.1c0,1.7,1.1,2.4,2.3,2.4c0.9,0,1.4-0.2,1.9-0.3l0.2,0.9c-0.4,0.2-1.2,0.4-2.3,0.4
		c-2.1,0-3.3-1.4-3.3-3.4c0-2,1.2-3.7,3.2-3.7c2.2,0,2.8,1.9,2.8,3.2c0,0.3,0,0.4,0,0.6H151.2z M154.8,29.2c0-0.8-0.3-2-1.7-2
		c-1.2,0-1.8,1.1-1.9,2H154.8z"/>
</g>
<rect class="st1" width="172" height="60"/>
<rect x="10.8" y="13.3" class="st1" width="33.8" height="33.8"/>
<line class="st1" x1="10.8" y1="13.3" x2="44.5" y2="47"/>
<line class="st1" x1="44.5" y1="13.3" x2="10.8" y2="47"/>
</svg>
